<?xml version="1.0" encoding="utf-8"?>
<!-- Generator: Adobe Illustrator 25.2.1, SVG Export Plug-In . SVG Version: 6.00 Build 0)  -->
<svg version="1.1" id="Layer_1" xmlns="http://www.w3.org/2000/svg" xmlns:xlink="http://www.w3.org/1999/xlink" x="0px" y="0px"
	 viewBox="0 0 300 300" style="enable-background:new 0 0 300 300;" xml:space="preserve">
<style type="text/css">
	.st0{fill:#E58906;}
	.st1{fill:#FFFFFF;}
</style>
<g>
	<path class="st0" d="M266.11,296.98H33.89c-16.98,0-30.87-13.89-30.87-30.87V33.89c0-16.98,13.89-30.87,30.87-30.87h232.22
		c16.98,0,30.87,13.89,30.87,30.87v232.22C296.98,283.09,283.09,296.98,266.11,296.98z"/>
	<g>
		<g>
			<path class="st1" d="M220.33,186.87l-28.74-16.59c-7.01,12.12-20.11,20.29-35.12,20.29c-22.4,0-40.56-18.16-40.56-40.56
				c0-11.5,4.79-21.87,12.48-29.25H60.7c-2.71,9.27-4.18,19.08-4.18,29.25c0,56.34,44.75,102.01,99.95,102.01
				c37.31,0,69.83-20.86,87.01-51.78L220.33,186.87z"/>
			<path class="st1" d="M191.59,129.72l28.75-16.59l23.14-13.36c-17.17-30.92-49.7-51.78-87.01-51.78
				c-41.08,0-76.36,25.29-91.73,61.45h91.73C171.48,109.44,184.58,117.6,191.59,129.72z"/>
		</g>
	</g>
</g>
</svg>
